<?xml version="1.0" standalone="no"?>
<!DOCTYPE svg PUBLIC "-//W3C//DTD SVG 20010904//EN"
 "http://www.w3.org/TR/2001/REC-SVG-20010904/DTD/svg10.dtd">
<svg version="1.0" xmlns="http://www.w3.org/2000/svg"
 width="260.000000pt" height="260.000000pt" viewBox="0 0 260.000000 260.000000"
 preserveAspectRatio="xMidYMid meet">
<metadata>
Created by potrace 1.11, written by Peter Selinger 2001-2013
</metadata>
<g transform="translate(0.000000,260.000000) scale(0.100000,-0.100000)"
fill="#000000" stroke="none">
<path d="M1239 2487 c-61 -93 -165 -148 -304 -163 -33 -4 -67 -8 -75 -10 -8
-1 -22 -3 -31 -3 -16 -1 -79 -58 -79 -72 0 -4 -18 -39 -40 -77 -73 -127 -182
-198 -350 -229 -13 -2 -30 -9 -37 -15 -18 -15 -16 -56 5 -77 21 -24 97 -45
129 -36 68 17 370 25 463 13 20 -3 55 -19 79 -36 42 -30 121 -65 178 -78 57
-13 194 -12 240 2 188 57 239 219 93 294 -62 31 -157 24 -196 -14 -8 -8 -17
-28 -20 -44 -5 -24 0 -35 28 -64 l35 -34 -30 4 c-16 3 -44 20 -62 38 -35 35
-37 50 -15 105 32 76 213 97 317 37 39 -23 82 -65 84 -83 9 -75 6 -96 -20
-137 -52 -81 -164 -130 -546 -238 -99 -28 -187 -54 -195 -57 -8 -3 -17 -7 -20
-8 -74 -19 -269 -100 -325 -136 -25 -16 -48 -29 -51 -29 -12 0 -90 -64 -133
-109 -64 -66 -106 -137 -130 -217 -21 -71 -35 -161 -23 -149 4 4 7 10 7 13 0
4 12 32 27 62 80 164 261 279 585 375 48 15 97 28 108 30 11 2 56 13 100 25
44 12 91 24 105 27 31 5 192 48 285 74 321 92 521 198 662 348 55 58 62 70 41
72 -66 4 -168 66 -168 102 0 9 -4 18 -9 21 -12 8 -2 74 15 108 8 15 24 34 36
42 l21 15 -27 11 c-15 5 -38 13 -52 16 -41 10 -128 61 -153 90 -28 32 -33 81
-12 113 14 22 14 23 -4 17 -61 -19 -142 -29 -230 -30 -81 0 -108 3 -145 20
-50 24 -90 56 -90 73 0 6 -4 11 -10 11 -5 0 -10 6 -10 14 0 32 -18 22 -51 -27z"/>
<path d="M2315 2040 c-22 -55 -43 -100 -47 -100 -5 0 -8 -5 -8 -11 0 -25 -98
-157 -169 -227 -84 -83 -166 -140 -286 -199 -78 -38 -235 -100 -272 -108 -10
-2 -37 -10 -60 -19 -24 -8 -43 -13 -43 -10 0 2 -8 0 -18 -5 -11 -6 -30 -12
-43 -15 -93 -19 -418 -120 -519 -161 -58 -23 -80 -31 -92 -34 -4 -1 -50 -23
-102 -50 -325 -167 -427 -321 -335 -505 32 -64 184 -216 216 -216 7 0 13 -4
13 -8 0 -5 10 -13 23 -19 l23 -11 -24 72 c-32 98 -28 206 12 288 30 59 98 137
156 178 19 13 37 27 40 30 3 4 25 17 50 31 25 13 47 27 50 30 6 7 135 68 265
124 17 8 89 37 160 65 618 247 848 402 973 661 30 62 67 184 78 259 3 19 7 41
9 48 2 6 1 12 -3 12 -4 0 -25 -45 -47 -100z"/>
<path d="M1956 1382 c-30 -45 -114 -104 -233 -164 -63 -31 -114 -57 -116 -56
-1 0 -20 -7 -42 -17 -22 -9 -74 -30 -115 -47 -41 -16 -94 -38 -117 -49 -23
-10 -44 -19 -47 -19 -2 0 -53 -23 -113 -52 -122 -58 -265 -140 -294 -169 -10
-10 -23 -19 -27 -19 -15 0 -132 -125 -158 -167 -96 -162 -48 -313 149 -462 38
-28 82 -58 99 -67 29 -15 31 -15 23 2 -41 97 -56 155 -56 224 0 41 1 82 4 90
2 8 7 29 12 45 4 17 13 37 19 45 7 8 18 28 26 44 30 61 251 256 289 256 6 0
11 4 11 8 0 5 15 16 33 25 17 9 39 21 47 27 22 15 242 140 246 140 2 0 50 31
106 69 150 101 244 199 268 280 4 14 11 34 15 44 11 27 -8 20 -29 -11z"/>
</g>
</svg>
